# xmcd CD database file
#
# Track frame offsets:
#	150
#	20089
#	38678
#	73787
#	105035
#	144573
#	171912
#	186287
#	212267
#	254698
#
# Disc length: 3620 seconds
#
# Revision: 0
# Processed by: cddbd v1.5.2PL0 Copyright (c) Steve Scherf et al.
# Submitted via: CDex 1.51
#
DISCID=890e220a
DTITLE=Juke Joint Allstars - Beale Street, Memphis, TN - Juke Joint Blues - Vol. 1
DYEAR=2006
DGENRE=Blues
TTITLE0=On Beale
TTITLE1=Ooops Upside Your Head
TTITLE2=I'm A Bluesman
TTITLE3=Your Heart Is Cold
TTITLE4=Windy City Blues
TTITLE5=Juke Joint Blues
TTITLE6=Blues For You Baby
TTITLE7=Why Did You Give Me Your Number
TTITLE8=Allright Baby
TTITLE9=Shake It
EXTD=YEAR: 2006
EXTT0=
EXTT1=
EXTT2=
EXTT3=
EXTT4=
EXTT5=
EXTT6=
EXTT7=
EXTT8=
EXTT9=
PLAYORDER=
